HIERARCHY
ROOT Hips
{
	OFFSET 0.000000 97.167313 0.000000
	CHANNELS 6 Xposition Yposition Zposition Xrotation Yrotation Zrotation
	JOINT Spine
	{
		OFFSET 0.000000 13.784798 0.064400
		CHANNELS 3 Xrotation Yrotation Zrotation
		JOINT Spine1
		{
			OFFSET 0.000000 12.037903 0.404700
			CHANNELS 3 Xrotation Yrotation Zrotation
			JOINT Spine2
			{
				OFFSET 0.000000 17.795601 0.420200
				CHANNELS 3 Xrotation Yrotation Zrotation
				JOINT Neck
				{
					OFFSET 0.000000 39.131302 11.954600
					CHANNELS 3 Xrotation Yrotation Zrotation
					JOINT Head
					{
						OFFSET 0.000000 14.456192 15.627699
						CHANNELS 3 Xrotation Yrotation Zrotation
						JOINT HeadTop_End
						{
							OFFSET 0.000000 15.703506 7.603401
							CHANNELS 3 Xrotation Yrotation Zrotation
							End Site
							{
								OFFSET 0.000000 17.447403 0.000000
							}
						}
					}
				}
				JOINT LeftShoulder
				{
					OFFSET 17.399500 24.608795 1.168800
					CHANNELS 3 Xrotation Yrotation Zrotation
					JOINT LeftArm
					{
						OFFSET 18.980635 5.765305 1.818600
						CHANNELS 3 Xrotation Yrotation Zrotation
						JOINT LeftForeArm
						{
							OFFSET 49.290169 0.000000 0.000000
							CHANNELS 3 Xrotation Yrotation Zrotation
							JOINT LeftHand
							{
								OFFSET 31.562012 0.000000 0.000000
								CHANNELS 3 Xrotation Yrotation Zrotation
								JOINT LeftHandThumb1
								{
									OFFSET 6.133995 -4.388519 7.076070
									CHANNELS 3 Xrotation Yrotation Zrotation
									JOINT LeftHandThumb2
									{
										OFFSET 6.037666 -3.485840 3.485847
										CHANNELS 3 Xrotation Yrotation Zrotation
										JOINT LeftHandThumb3
										{
											OFFSET 6.496506 -3.750763 3.750761
											CHANNELS 3 Xrotation Yrotation Zrotation
											JOINT LeftHandThumb4
											{
												OFFSET 5.616882 -3.242905 3.242910
												CHANNELS 3 Xrotation Yrotation Zrotation
												End Site
												{
													OFFSET -1.254608 7.132141 0.375429
												}
											}
										}
									}
								}
								JOINT LeftHandPinky1
								{
									OFFSET 18.920792 -0.453171 -11.426712
									CHANNELS 3 Xrotation Yrotation Zrotation
									JOINT LeftHandPinky2
									{
										OFFSET 4.919586 0.000000 0.000000
										CHANNELS 3 Xrotation Yrotation Zrotation
										JOINT LeftHandPinky3
										{
											OFFSET 5.233047 0.000000 0.000000
											CHANNELS 3 Xrotation Yrotation Zrotation
											JOINT LeftHandPinky4
											{
												OFFSET 5.571716 0.000000 0.000000
												CHANNELS 3 Xrotation Yrotation Zrotation
												End Site
												{
													OFFSET -3.459808 4.342407 -0.466164
												}
											}
										}
									}
								}
								JOINT LeftHandRing1
								{
									OFFSET 22.726120 -0.094986 -6.500475
									CHANNELS 3 Xrotation Yrotation Zrotation
									JOINT LeftHandRing2
									{
										OFFSET 6.408615 0.000000 0.000000
										CHANNELS 3 Xrotation Yrotation Zrotation
										JOINT LeftHandRing3
										{
											OFFSET 6.150223 0.000000 0.000000
											CHANNELS 3 Xrotation Yrotation Zrotation
											JOINT LeftHandRing4
											{
												OFFSET 6.145386 0.000000 0.000000
												CHANNELS 3 Xrotation Yrotation Zrotation
												End Site
												{
													OFFSET -3.671402 4.923981 -0.202372
												}
											}
										}
									}
								}
								JOINT LeftHandMiddle1
								{
									OFFSET 23.373947 0.000000 0.000001
									CHANNELS 3 Xrotation Yrotation Zrotation
									JOINT LeftHandMiddle2
									{
										OFFSET 6.996567 0.000000 0.000000
										CHANNELS 3 Xrotation Yrotation Zrotation
										JOINT LeftHandMiddle3
										{
											OFFSET 7.015945 0.000000 0.000000
											CHANNELS 3 Xrotation Yrotation Zrotation
											JOINT LeftHandMiddle4
											{
												OFFSET 7.721573 0.000000 0.000000
												CHANNELS 3 Xrotation Yrotation Zrotation
												End Site
												{
													OFFSET -4.651108 6.158463 0.251582
												}
											}
										}
									}
								}
								JOINT LeftHandIndex1
								{
									OFFSET 21.310577 -0.490082 6.209344
									CHANNELS 3 Xrotation Yrotation Zrotation
									JOINT LeftHandIndex2
									{
										OFFSET 7.536453 0.000000 0.000000
										CHANNELS 3 Xrotation Yrotation Zrotation
										JOINT LeftHandIndex3
										{
											OFFSET 7.512344 0.000000 0.000000
											CHANNELS 3 Xrotation Yrotation Zrotation
											JOINT LeftHandIndex4
											{
												OFFSET 10.212402 0.000000 0.000001
												CHANNELS 3 Xrotation Yrotation Zrotation
												End Site
												{
													OFFSET -5.180801 8.690506 1.388433
												}
											}
										}
									}
								}
							}
						}
					}
				}
				JOINT RightShoulder
				{
					OFFSET -17.399500 24.608795 1.168800
					CHANNELS 3 Xrotation Yrotation Zrotation
					JOINT RightArm
					{
						OFFSET -18.980635 5.765305 1.818600
						CHANNELS 3 Xrotation Yrotation Zrotation
						JOINT RightForeArm
						{
							OFFSET -49.290169 0.000000 0.000000
							CHANNELS 3 Xrotation Yrotation Zrotation
							JOINT RightHand
							{
								OFFSET -31.562012 0.000000 0.000000
								CHANNELS 3 Xrotation Yrotation Zrotation
								JOINT RightHandThumb1
								{
									OFFSET -6.133995 -4.388519 7.076070
									CHANNELS 3 Xrotation Yrotation Zrotation
									JOINT RightHandThumb2
									{
										OFFSET -6.037666 -3.485840 3.485847
										CHANNELS 3 Xrotation Yrotation Zrotation
										JOINT RightHandThumb3
										{
											OFFSET -6.496506 -3.750763 3.750761
											CHANNELS 3 Xrotation Yrotation Zrotation
											JOINT RightHandThumb4
											{
												OFFSET -5.616882 -3.242905 3.242910
												CHANNELS 3 Xrotation Yrotation Zrotation
												End Site
												{
													OFFSET 1.254608 7.132141 0.375429
												}
											}
										}
									}
								}
								JOINT RightHandIndex1
								{
									OFFSET -21.310577 -0.490082 6.209344
									CHANNELS 3 Xrotation Yrotation Zrotation
									JOINT RightHandIndex2
									{
										OFFSET -7.536453 0.000000 0.000000
										CHANNELS 3 Xrotation Yrotation Zrotation
										JOINT RightHandIndex3
										{
											OFFSET -7.512344 0.000000 0.000000
											CHANNELS 3 Xrotation Yrotation Zrotation
											JOINT RightHandIndex4
											{
												OFFSET -10.212402 0.000000 0.000001
												CHANNELS 3 Xrotation Yrotation Zrotation
												End Site
												{
													OFFSET 5.180801 8.690506 1.388433
												}
											}
										}
									}
								}
								JOINT RightHandMiddle1
								{
									OFFSET -23.373947 0.000000 0.000001
									CHANNELS 3 Xrotation Yrotation Zrotation
									JOINT RightHandMiddle2
									{
										OFFSET -6.996567 0.000000 0.000000
										CHANNELS 3 Xrotation Yrotation Zrotation
										JOINT RightHandMiddle3
										{
											OFFSET -7.015945 0.000000 0.000000
											CHANNELS 3 Xrotation Yrotation Zrotation
											JOINT RightHandMiddle4
											{
												OFFSET -7.721573 0.000000 0.000000
												CHANNELS 3 Xrotation Yrotation Zrotation
												End Site
												{
													OFFSET 4.651108 6.158463 0.251582
												}
											}
										}
									}
								}
								JOINT RightHandRing1
								{
									OFFSET -22.726120 -0.094986 -6.500475
									CHANNELS 3 Xrotation Yrotation Zrotation
									JOINT RightHandRing2
									{
										OFFSET -6.408615 0.000000 0.000000
										CHANNELS 3 Xrotation Yrotation Zrotation
										JOINT RightHandRing3
										{
											OFFSET -6.150223 0.000000 0.000000
											CHANNELS 3 Xrotation Yrotation Zrotation
											JOINT RightHandRing4
											{
												OFFSET -6.145386 0.000000 0.000000
												CHANNELS 3 Xrotation Yrotation Zrotation
												End Site
												{
													OFFSET 3.671402 4.923981 -0.202372
												}
											}
										}
									}
								}
								JOINT RightHandPinky1
								{
									OFFSET -18.920792 -0.453171 -11.426712
									CHANNELS 3 Xrotation Yrotation Zrotation
									JOINT RightHandPinky2
									{
										OFFSET -4.919586 0.000000 0.000000
										CHANNELS 3 Xrotation Yrotation Zrotation
										JOINT RightHandPinky3
										{
											OFFSET -5.233047 0.000000 0.000000
											CHANNELS 3 Xrotation Yrotation Zrotation
											JOINT RightHandPinky4
											{
												OFFSET -5.571716 0.000000 0.000000
												CHANNELS 3 Xrotation Yrotation Zrotation
												End Site
												{
													OFFSET 3.459808 4.342407 -0.466164
												}
											}
										}
									}
								}
							}
						}
					}
				}
			}
		}
	}
	JOINT LeftUpLeg
	{
		OFFSET 19.899099 -7.885101 -3.429500
		CHANNELS 3 Xrotation Yrotation Zrotation
		JOINT LeftLeg
		{
			OFFSET 1.745560 -36.997807 10.304700
			CHANNELS 3 Xrotation Yrotation Zrotation
			JOINT LeftFoot
			{
				OFFSET -1.745558 -29.803308 -13.615400
				CHANNELS 3 Xrotation Yrotation Zrotation
				JOINT LeftToeBase
				{
					OFFSET 1.181900 -18.539904 15.226099
					CHANNELS 3 Xrotation Yrotation Zrotation
					JOINT LeftToe_End
					{
						OFFSET -0.863701 1.402801 16.534700
						CHANNELS 3 Xrotation Yrotation Zrotation
						End Site
						{
							OFFSET 0.000000 16.616566 0.000000
						}
					}
				}
			}
		}
	}
	JOINT RightUpLeg
	{
		OFFSET -19.899099 -7.885101 -3.429500
		CHANNELS 3 Xrotation Yrotation Zrotation
		JOINT RightLeg
		{
			OFFSET -1.745560 -36.997807 10.304700
			CHANNELS 3 Xrotation Yrotation Zrotation
			JOINT RightFoot
			{
				OFFSET 1.745558 -29.803308 -13.615400
				CHANNELS 3 Xrotation Yrotation Zrotation
				JOINT RightToeBase
				{
					OFFSET -1.181900 -18.539904 15.226099
					CHANNELS 3 Xrotation Yrotation Zrotation
					JOINT RightToe_End
					{
						OFFSET 0.863701 1.402801 16.534700
						CHANNELS 3 Xrotation Yrotation Zrotation
						End Site
						{
							OFFSET 0.000000 16.616566 0.000000
						}
					}
				}
			}
		}
	}
}
MOTION
Frames: 5
Frame Time: 0.033333
-2.207782 77.579376 1.835506 9.030185 -35.442224 2.794235 4.154693 4.272023 3.957116 2.230888 1.589072 0.860513 2.196373 1.665544 0.808232 -1.935448 3.695293 -0.661190 5.162820 18.690249 -7.403652 -0.000001 -0.000000 0.000000 8.613362 -11.681975 -2.879732 -49.485882 -1.994539 -44.042986 0.000037 -106.004775 0.000026 14.693222 1.385413 4.493962 -10.355873 -18.164524 -0.612226 10.166265 44.439195 3.473485 -4.021245 34.356319 21.444173 0.000002 -0.000001 -0.000002 14.702281 10.907158 -74.390295 5.247191 5.819933 -84.066037 1.122285 3.449738 -36.032892 -0.000003 -0.000001 -0.000004 6.551729 9.294150 -62.102785 5.321230 5.827092 -84.795405 0.629963 2.644688 -26.791724 -0.000002 -0.000001 0.000005 2.431947 7.055181 -53.394072 4.432926 5.677167 -75.949880 0.393617 2.113006 -21.102568 0.000002 -0.000000 0.000004 -1.623581 2.464337 -39.970107 4.432926 5.677182 -75.949873 0.393635 2.112994 -21.102539 -0.000000 0.000001 0.000001 4.720330 14.118459 -1.054180 -49.136179 29.769222 70.987625 -0.000051 111.725434 0.000075 2.246874 10.553224 0.371477 -11.269588 20.282831 1.210516 10.083149 -46.337725 -3.955797 -2.729970 -40.589741 -21.861284 0.000002 0.000000 0.000003 -1.909772 -1.536827 39.260043 3.529766 -4.518937 75.975698 0.314036 -1.682777 21.139471 -0.000005 0.000002 -0.000001 1.887734 -5.985918 52.719829 3.529761 -4.518946 75.975746 0.314025 -1.682781 21.139444 -0.000002 0.000000 -0.000004 5.826229 -8.180350 61.423119 4.235970 -4.638119 84.805288 0.502499 -2.106114 26.835946 -0.000001 -0.000000 0.000000 13.716889 -9.803641 73.678917 4.177144 -4.632414 84.077334 0.894949 -2.746965 36.085129 -0.000000 0.000004 -0.000003 -51.511958 0.307439 26.700034 41.106746 -7.226021 -3.293537 3.580272 1.759721 -13.548791 -0.000399 -0.000009 -0.000001 -0.000000 0.000000 -0.000000 -6.867562 -12.201657 -26.713676 38.071669 -0.120909 0.472330 -18.987000 -10.175893 28.264260 -15.850427 0.000010 0.000006 0.000000 -0.000002 0.000000 
-2.402871 77.917221 1.838349 9.306344 -35.533140 3.318287 4.127853 4.259538 3.908462 2.236630 1.675607 0.816373 2.209834 1.747361 0.756294 -2.134183 3.872935 -1.062681 4.999739 18.995642 -7.123769 0.000001 0.000000 0.000000 8.379048 -11.012101 -2.915629 -49.205151 -2.214741 -44.105171 -0.000034 -105.748390 -0.000070 16.081370 0.059607 4.812229 -10.346818 -18.158418 -0.609892 10.164397 44.426559 3.473170 -4.021583 34.341682 21.440565 0.000000 0.000001 0.000000 14.700672 10.913514 -74.369190 5.243849 5.819579 -84.033026 1.121364 3.448464 -36.017619 0.000004 0.000002 -0.000004 6.550083 9.294388 -62.087950 5.317853 5.826792 -84.762149 0.629489 2.643734 -26.781266 0.000001 0.000002 0.000003 2.430492 7.054105 -53.378669 4.430087 5.676462 -75.921084 0.393343 2.112284 -21.095060 0.000004 -0.000002 0.000001 -1.626967 2.456937 -39.958417 4.430071 5.676474 -75.921077 0.393333 2.112281 -21.095065 -0.000001 -0.000000 0.000001 4.759046 14.520711 -1.544867 -49.105768 30.733543 71.117828 0.000220 109.125905 -0.000216 1.823276 10.358516 -1.185429 -10.198481 19.819199 0.921533 9.943228 -45.204555 -3.924572 -2.750584 -39.433885 -21.611111 -0.000001 -0.000001 0.000004 -2.139024 -0.956229 37.736044 3.415962 -4.489076 74.526701 0.293104 -1.627660 20.415210 -0.000002 0.000002 -0.000001 1.794104 -5.913112 51.259091 3.346553 -4.469334 73.637943 0.293106 -1.627660 20.415193 0.000000 0.000001 -0.000006 5.875581 -8.270288 60.609173 4.029663 -4.614798 82.247943 0.466285 -2.032982 25.832969 -0.000000 0.000002 -0.000007 13.387294 -10.567524 73.196774 3.958138 -4.604528 81.358031 0.826380 -2.650422 34.628612 -0.000001 0.000003 -0.000001 -50.956630 0.772995 26.520002 40.115726 -6.924566 -3.279579 3.824381 1.642764 -13.707424 -0.020883 -0.000015 -0.000001 -0.000000 -0.000000 0.000000 -6.866903 -11.878869 -26.577581 37.668794 -0.312750 0.196228 -18.767106 -10.499909 28.271874 -15.917821 -0.000017 0.000002 -0.000000 0.000002 0.000000 
-2.629169 78.364937 1.754292 9.472920 -35.793009 3.921867 4.132815 4.349453 3.694476 2.365245 2.054183 0.626542 2.350030 2.121762 0.552613 -2.300752 3.771881 -1.243234 4.512471 18.718892 -6.569496 -0.000000 0.000000 -0.000001 7.891933 -10.162743 -3.088791 -48.564178 -3.395736 -44.232503 0.000065 -104.661625 0.000027 19.670419 -3.295450 5.658911 -10.282639 -18.118289 -0.589454 10.155061 44.350758 3.470041 -4.023553 34.260140 21.420624 0.000001 0.000003 0.000000 14.677709 10.952724 -74.241438 5.224779 5.817548 -83.844889 1.115527 3.440436 -35.920262 -0.000001 0.000000 -0.000002 6.540384 9.296052 -61.997026 5.298588 5.825006 -84.572400 0.626356 2.637538 -26.713403 -0.000004 -0.000001 0.000003 2.424587 7.049734 -53.284164 4.414028 5.672454 -75.758799 0.391519 2.107542 -21.045292 -0.000001 -0.000003 0.000001 -1.638896 2.421670 -39.882093 4.414035 5.672444 -75.758799 0.391510 2.107532 -21.045293 0.000002 0.000003 0.000001 4.783127 14.733201 -1.817780 -48.372817 32.602105 70.180112 -0.000056 105.222923 0.000065 1.130771 9.932582 -4.543571 -7.876590 18.785187 0.365959 9.641218 -42.708794 -3.844661 -2.817127 -36.888298 -21.071938 -0.000000 -0.000001 -0.000002 -2.540912 0.353093 34.379597 3.168242 -4.413241 71.335609 0.249499 -1.505353 18.820064 -0.000002 0.000001 -0.000001 1.594680 -5.744578 48.042792 2.951207 -4.334101 68.490241 0.249495 -1.505354 18.820062 0.000003 -0.000000 -0.000004 5.972827 -8.475650 58.814534 3.580290 -4.531220 76.616117 0.391061 -1.869749 23.624209 -0.000002 0.000001 -0.000008 12.614092 -12.232131 72.115378 3.482075 -4.506799 75.369778 0.684138 -2.431808 31.421322 0.000004 -0.000000 0.000002 -49.986739 1.365346 26.208129 38.786243 -6.761714 -3.185875 4.128555 2.002135 -14.033424 0.015218 -0.000007 0.000000 -0.000000 0.000000 0.000000 -7.054166 -11.621040 -26.442866 37.274699 0.167542 -0.144049 -18.511578 -11.213382 27.840239 -16.010114 -0.000006 -0.000006 -0.000000 0.000003 -0.000000 
-2.897467 78.964233 1.562464 9.744586 -36.033428 4.759168 4.131651 4.490488 3.293182 2.587490 2.648744 0.260928 2.588019 2.712669 0.166840 -2.438832 3.418130 -1.284521 3.441809 17.779201 -5.421420 -0.000001 0.000000 0.000000 7.179290 -9.198351 -3.254385 -47.596532 -6.090106 -44.281059 -0.000147 -102.575849 -0.000164 24.537772 -7.703597 8.223052 -10.336027 -18.153125 -0.604717 10.164712 44.420036 3.472211 -4.021668 34.337953 21.439658 0.000000 -0.000003 0.000000 14.691394 10.917335 -74.357558 5.242748 5.819470 -84.022098 1.120673 3.447520 -36.006148 -0.000004 -0.000001 -0.000002 6.549290 9.294632 -62.079104 5.316728 5.826692 -84.751077 0.629083 2.642945 -26.772668 0.000000 -0.000002 0.000005 2.431714 7.055004 -53.369442 4.429253 5.676256 -75.912703 0.393101 2.111636 -21.088216 0.000002 0.000000 0.000001 -1.623593 2.458784 -39.948496 4.429256 5.676264 -75.912683 0.393099 2.111633 -21.088219 -0.000004 0.000003 0.000002 4.826673 14.735904 -2.133292 -46.595356 35.371767 67.978462 0.000191 100.228942 -0.000153 -0.172132 9.094317 -9.394227 -4.580642 17.257538 -0.247372 9.212833 -39.072230 -3.703102 -2.961758 -33.179526 -20.309142 -0.000000 -0.000002 0.000003 -2.871594 2.323330 29.486944 2.815732 -4.278391 66.686197 0.192073 -1.325043 16.495675 -0.000001 -0.000001 0.000001 1.321882 -5.479652 43.358280 2.400660 -4.075030 60.991889 0.192078 -1.325051 16.495663 -0.000002 0.000002 -0.000006 6.087200 -8.792333 56.195166 2.945261 -4.331759 68.411421 0.292836 -1.626958 20.405962 -0.000003 -0.000001 -0.000002 11.370187 -14.611067 70.487033 2.812764 -4.277102 66.646329 0.499289 -2.099772 26.748979 -0.000001 0.000002 0.000004 -48.783492 2.064423 25.746980 36.822991 -6.252486 -3.071477 4.844083 2.143971 -14.468994 -0.014443 -0.000002 -0.000003 0.000000 -0.000000 -0.000000 -7.523345 -11.562089 -26.412965 36.790855 1.236569 -0.363334 -18.187797 -12.218196 26.928586 -15.790883 0.000031 0.000001 -0.000000 0.000001 0.000000 
-3.218554 79.759567 1.309628 10.552635 -36.362022 6.071751 4.029449 4.606566 2.743097 2.755415 3.324544 -0.235196 2.775548 3.383341 -0.354310 -2.642820 2.928644 -1.347916 1.854704 16.289706 -3.633347 -0.000000 -0.000000 -0.000000 6.348693 -8.170440 -2.978615 -44.798347 -10.416938 -43.664119 -0.000274 -99.582601 -0.000270 29.557203 -11.327875 13.662328 -10.547456 -18.285586 -0.671879 10.196128 44.672115 3.482388 -4.015248 34.610491 21.506372 0.000003 -0.000000 0.000000 14.747280 10.842344 -74.789800 5.305364 5.825634 -84.639103 1.140131 3.474082 -36.328533 0.000001 0.000002 -0.000005 6.581210 9.288883 -62.380890 5.381023 5.832207 -85.384174 0.639469 2.663410 -26.997197 -0.000001 -0.000001 0.000002 2.451917 7.069851 -53.683111 4.482918 5.689403 -76.454713 0.399176 2.127317 -21.252571 0.000001 0.000000 0.000004 -1.565014 2.564719 -40.203016 4.482748 5.689356 -76.452971 0.399172 2.127309 -21.252584 -0.000002 0.000005 0.000002 4.915431 14.618871 -2.722087 -43.314785 39.554244 64.629135 -0.000456 94.306512 0.000513 -1.430707 8.047635 -15.402710 -0.820509 15.447994 -0.679010 8.719314 -34.786775 -3.502193 -3.197409 -28.810312 -19.433367 0.000002 -0.000000 -0.000002 -2.862912 4.692730 23.696902 2.416032 -4.083502 61.208091 0.133866 -1.109740 13.756239 -0.000000 -0.000002 0.000001 1.029687 -5.140175 37.840829 1.802138 -3.680932 52.159925 0.133853 -1.109740 13.756216 0.000004 0.000003 -0.000006 6.178502 -9.188847 53.101173 2.242880 -3.983678 58.746703 0.194814 -1.334239 16.613424 -0.000003 0.000000 0.000000 9.720293 -17.335852 68.478425 2.079959 -3.880384 56.371440 0.317127 -1.690729 21.243995 0.000000 -0.000004 0.000002 -47.554041 2.875305 25.379950 34.132620 -4.852751 -3.072104 5.918811 1.318241 -14.868634 -0.112138 -0.000014 -0.000002 -0.000000 -0.000002 0.000000 -8.561174 -11.519338 -26.729518 36.061196 1.838945 -0.317043 -17.590729 -12.440092 26.037506 -15.568872 0.000008 -0.000000 -0.000000 0.000003 0.000000 
